<svg xmlns="http://www.w3.org/2000/svg" width="262" height="180" fill="none" viewBox="0 0 262 180"><g clip-path="url(#clip0_667_1970)"><path fill="#99ADF9" d="M109.494 168.267H71.041c-9.494 0-11.307 2.24-7.307 3.893 4 1.653-15.147.853-18.4 3.787-3.307 2.933 5.12 4.053 14.24 4.053h73.28c7.307 0 5.493-5.333 1.12-6.027-4.373-.693 7.093.267 11.467-1.28 4.373-1.546 1.226-4.426-35.947-4.426Z"/><path fill="#C5D3FF" d="M165.6 178.026c-1.12 1.547-4.853 1.92-11.2 1.76-4.8-.16-9.813-.533-9.813-2.773s12.213-1.974 16.48-1.494c3.68.427 5.173 1.6 4.533 2.507ZM55.093 170.56c-.747 1.12-3.307 1.44-7.787 1.44-3.36 0-6.88-.16-6.987-1.706-.106-1.6 8.48-1.654 11.52-1.387 2.56.213 3.68.96 3.254 1.653Z"/><path fill="#C5DFFF" d="M242.88 166.933h-19.04a2.73 2.73 0 0 1-2.72-2.72v-19.68a2.735 2.735 0 0 1 2.72-2.72h19.04a2.732 2.732 0 0 1 2.72 2.72v19.68a2.731 2.731 0 0 1-2.72 2.72Z"/><path fill="#E1ECFF" d="M241.974 166.027h-18.293a2.617 2.617 0 0 1-2.614-2.614v-18.986a2.622 2.622 0 0 1 2.614-2.614h18.293a2.616 2.616 0 0 1 2.613 2.614v18.986a2.616 2.616 0 0 1-2.613 2.614Z"/><path fill="#C5DFFF" d="M233.014 161.813a7.68 7.68 0 1 0 0-15.36 7.68 7.68 0 0 0 0 15.36Z"/><path fill="#1C3177" d="M229.974 157.6a.48.48 0 0 1-.48-.48v-5.92a.48.48 0 0 1 .48-.48.481.481 0 0 1 .48.48v5.92a.48.48 0 0 1-.48.48ZM235.521 157.6a.48.48 0 0 1-.48-.48v-5.92a.48.48 0 0 1 .48-.48.48.48 0 0 1 .48.48v5.92a.48.48 0 0 1-.48.48ZM186.507 133.653a7.912 7.912 0 0 1-1.12-.053c-8.267-.587-13.92-3.414-23.413-17.867-3.307-5.013-5.547-10.133-7.734-15.093-3.733-8.48-6.933-15.84-14.186-19.254-11.147-5.226-22.08 3.414-22.187 3.52a1.1 1.1 0 0 1-1.387-1.706c.48-.374 12.107-9.6 24.48-3.787 8 3.734 11.52 11.787 15.254 20.32 2.133 4.907 4.373 9.973 7.573 14.773 9.013 13.654 14.187 16.32 21.76 16.907 5.653.427 8.693-2.987 11.627-6.347a36.736 36.736 0 0 1 3.146-3.253 19.028 19.028 0 0 1 9.067-4.373 1.08 1.08 0 0 1 1.207 1.327 1.069 1.069 0 0 1-.491.664 1.076 1.076 0 0 1-.396.142 17.633 17.633 0 0 0-7.947 3.893 32.258 32.258 0 0 0-2.933 3.04c-2.987 3.414-6.293 7.147-12.32 7.147ZM217.548 113.76l4.48-3.787a1.04 1.04 0 0 1 .781-.241 1.03 1.03 0 0 1 .712.401 1.01 1.01 0 0 1-.16 1.387l-4.533 4-1.28-1.76ZM214.774 110.56l4.48-3.787a1.05 1.05 0 0 1 .781-.241 1.038 1.038 0 0 1 .713.401 1.008 1.008 0 0 1-.16 1.387l-4.534 4-1.28-1.76Z"/><path fill="#E1ECFF" d="M220.694 115.732a48.079 48.079 0 0 1-4.48 4.48c-2.72 2.347-6.24 1.92-7.84.107-.106-.107-.16-.213-.266-.32a4.638 4.638 0 0 1 .64-6.4c2.186-2.027 5.813-4.907 5.813-4.907l4.373 5.067 1.76 1.973Z"/><path fill="#C5DFFF" d="M220.695 115.733a48.324 48.324 0 0 1-4.48 4.48c-2.72 2.347-6.24 1.92-7.84.107-.107-.107-.16-.214-.267-.32a9.923 9.923 0 0 0 5.44-1.6 42.503 42.503 0 0 0 5.334-4.64l1.813 1.973Z"/><path fill="#1C3177" d="M139.094 156.586h-.213c-3.627-.053-13.067-7.146-15.467-10.453-2.453-3.307-4.64-7.52-1.653-10.24a4.75 4.75 0 0 1 2.4-1.067 6.682 6.682 0 0 1 4.693 1.014c2.56 1.653 9.76 10.026 11.787 13.6 1.973 3.52 1.92 7.093-1.547 7.146Z"/><path fill="#384D89" d="M139.094 156.586c.534-.32.907-.853 1.227-1.92.533-1.866-1.333-5.6-7.467-12.746-3.68-4.32-6.826-6.24-8.693-7.094a6.68 6.68 0 0 1 4.693 1.014c2.56 1.653 9.76 10.026 11.787 13.6 1.973 3.52 1.92 7.093-1.547 7.146Z"/><path fill="#142966" d="M121.067 138.187c.534-1.493 3.627-1.227 6.294 1.387 2.666 2.613 6.72 7.786 5.706 10.026-1.013 2.24-4.853.427-8-2.666-3.146-3.094-4.853-6.347-4-8.747Z"/><path fill="#E1ECFF" d="M127.788 144.854a6.621 6.621 0 0 1-.746 2.773s-14.347 6.827-32.32-5.707c-18.294-12.746-18.347-28.64-18.347-28.8 9.387-9.173 19.947.907 19.947.907a38.285 38.285 0 0 0 3.52 11.467c1.653 3.306 4.053 6.666 7.466 8.906a25.577 25.577 0 0 0 17.387 3.894s1.707.533 2.72 3.786c.349.88.477 1.832.373 2.774Z"/><path fill="#C5DFFF" d="M127.788 144.854a6.621 6.621 0 0 1-.746 2.773s-14.347 6.827-32.32-5.707c-18.294-12.746-18.347-28.64-18.347-28.8 9.387-9.173 19.947.907 19.947.907a38.285 38.285 0 0 0 3.52 11.467 17.849 17.849 0 0 1-4.64 2.613 24.93 24.93 0 0 1-6.08.853s9.013 13.494 22.346 15.947c7.2 1.227 12.747.693 16.32-.053Z"/><path fill="#C5DFFF" d="M107.681 147.572a.672.672 0 0 1-.64-.48.693.693 0 0 1 .187-.767.698.698 0 0 1 .24-.14c.053 0 2.933-1.12 3.787-3.466a6.486 6.486 0 0 0 .16-4.32.709.709 0 0 1 .373-.907.709.709 0 0 1 .907.373 8 8 0 0 1-.16 5.334c-1.12 2.986-4.48 4.213-4.64 4.266a.216.216 0 0 1-.214.107ZM95.309 142.08a.667.667 0 0 1-.634-.386.664.664 0 0 1-.06-.254.747.747 0 0 1 .64-.747c.054 0 3.787-.267 5.654-2.72a8.385 8.385 0 0 0 1.76-5.013.692.692 0 0 1 .64-.747.695.695 0 0 1 .746.64 9.462 9.462 0 0 1-2.026 5.973c-2.294 2.934-6.507 3.2-6.72 3.254Z"/><path fill="#E1ECFF" d="M70.026 131.999c-.224.513-.51.997-.853 1.44a6.23 6.23 0 0 1-2.24 1.813 6.583 6.583 0 0 1-1.92.64s-7.52-7.306-14.08-20.32c-6.56-12.96-7.04-27.893-7.04-27.893.552-.3 1.122-.567 1.706-.8a10.635 10.635 0 0 1 5.44-.64c1.36.17 2.668.624 3.84 1.333 0 0 .427 12.374 4.8 23.52 4.374 11.2 10.774 17.814 10.774 17.814a5.952 5.952 0 0 1-.427 3.093Z"/><path fill="#F8FBFF" d="M70.026 131.999c-2.347-2.08-6.827-6.826-11.147-16-5.173-10.986-7.253-25.12-7.786-29.76 1.36.17 2.668.624 3.84 1.334 0 0 .426 12.373 4.8 23.52 4.373 11.2 10.773 17.813 10.773 17.813a6.366 6.366 0 0 1-.48 3.093Z"/><path fill="#C5DFFF" d="M66.933 135.253a6.583 6.583 0 0 1-1.92.64s-7.52-7.306-14.08-20.32c-6.56-12.96-7.04-27.893-7.04-27.893.552-.3 1.122-.567 1.706-.8.374 4.8 2.134 20.587 9.6 32.96 5.12 8.427 9.227 13.013 11.734 15.413Z"/><path fill="#E1ECFF" d="M81.813 142.934a8.95 8.95 0 0 1-6.027.907c-3.253-.747-4.48-1.813-4.48-1.813s-1.066-1.6-.266-2.507l.106-.107a4.855 4.855 0 0 1 2.4-1.066 15.329 15.329 0 0 0 3.307 1.973c1.387.48 3.84 0 4.747.587a1.117 1.117 0 0 1 .426 1.173c-.003.297-.076.59-.213.853Z"/><path fill="#C5DFFF" d="M81.813 142.934a8.962 8.962 0 0 1-6.027.907c-3.253-.747-4.48-1.814-4.48-1.814s-1.066-1.6-.266-2.506c.96.906 3.253 2.88 5.92 3.2 1.716.21 3.457-.01 5.066-.64a1.896 1.896 0 0 1-.213.853Z"/><path fill="#E1ECFF" d="M80.8 141.44a9.475 9.475 0 0 1-6.24-1.12 5.454 5.454 0 0 1-2.08-1.813 2.64 2.64 0 0 1 .8-1.867c.426-.373 1.12-.533 2.186-.213 0 0 2.08 1.813 5.547.587 3.466-1.227 3.253-1.974 4-2.187.533-.16 1.227.64 1.386 1.547.1.409.063.84-.106 1.226a8.382 8.382 0 0 1-5.494 3.84Z"/><path fill="#C5DFFF" d="M80.8 141.441a9.487 9.487 0 0 1-6.24-1.12 5.465 5.465 0 0 1-2.08-1.814 2.64 2.64 0 0 1 .8-1.866c1.28 1.28 4.053 3.573 7.093 2.986a12.64 12.64 0 0 0 6.08-3.253c.1.41.062.841-.107 1.227a8.658 8.658 0 0 1-5.547 3.84Z"/><path fill="#E1ECFF" d="M80.214 137.921a8.847 8.847 0 0 1-5.92-1.067 4.882 4.882 0 0 1-1.974-1.706 2.653 2.653 0 0 1 .747-1.814c.427-.373 1.067-.533 2.08-.213 0 0 1.973 1.707 5.28.533 3.307-1.173 3.093-1.866 3.787-2.08.48-.16 1.173.64 1.333 1.494.098.392.06.805-.107 1.173a7.848 7.848 0 0 1-5.226 3.68Z"/><path fill="#C5DFFF" d="M80.214 137.921a8.847 8.847 0 0 1-5.92-1.067 4.877 4.877 0 0 1-1.974-1.707 2.652 2.652 0 0 1 .747-1.813c1.173 1.227 3.84 3.413 6.72 2.827a12.284 12.284 0 0 0 5.76-3.094c.098.392.06.806-.107 1.174a7.86 7.86 0 0 1-5.226 3.68Z"/><path fill="#E1ECFF" d="M79.84 135.254a8.037 8.037 0 0 1-5.44-.107 4.448 4.448 0 0 1-1.973-1.227 2.203 2.203 0 0 1 .48-1.706c.32-.374.906-.587 1.866-.48 0 0 1.974 1.226 4.8-.214 2.827-1.493 2.56-2.08 3.147-2.4.427-.213 1.12.374 1.387 1.12.125.342.144.714.053 1.067a7.756 7.756 0 0 1-4.32 3.947Z"/><path fill="#C5DFFF" d="M79.84 135.254a8.037 8.037 0 0 1-5.44-.107 4.457 4.457 0 0 1-1.973-1.227 2.202 2.202 0 0 1 .48-1.706c1.226.906 3.84 2.506 6.346 1.6a10.874 10.874 0 0 0 4.8-3.574c.126.342.144.714.054 1.067a7.45 7.45 0 0 1-4.267 3.947Z"/><path fill="#E1ECFF" d="M77.973 132.694c-.138.72-.317 1.432-.533 2.133a15.667 15.667 0 0 1-2.027 4.427c-.385.498-.814.962-1.28 1.387a6.408 6.408 0 0 1-2.773 1.6s-4.107-3.947-5.28-5.28a28.559 28.559 0 0 1-2.133-2.667 8.543 8.543 0 0 1 0-3.093 4.91 4.91 0 0 1 1.12-2.454c.31-.299.65-.567 1.013-.8a5.382 5.382 0 0 1 3.787-.213s3.946 2.453 5.706 3.413c.853.429 1.657.948 2.4 1.547Z"/><path fill="#F8FBFF" d="M77.973 132.694c-.138.72-.317 1.432-.533 2.133a41.09 41.09 0 0 1-4.16-2.72 69.814 69.814 0 0 0-7.2-4.16 5.382 5.382 0 0 1 3.787-.213s3.946 2.453 5.706 3.413c.853.429 1.657.948 2.4 1.547Z"/><path fill="#C5DFFF" d="M74.133 140.587a7.16 7.16 0 0 1-2.773 1.6s-4.107-4-5.28-5.28a28.546 28.546 0 0 1-2.133-2.666 8.548 8.548 0 0 1 0-3.094c1.653 1.867 6.08 6.667 9.173 8.694.373.32.747.533 1.013.746ZM58.88 126.934a4.32 4.32 0 0 1-1.334-.32.685.685 0 0 1-.267-.907.644.644 0 0 1 .854-.32c.053.054 1.546.747 3.52-.533 1.973-1.28 2.293-2.88 2.293-2.933a.59.59 0 0 1 .248-.443.6.6 0 0 1 .5-.091.723.723 0 0 1 .532.8c0 .107-.373 2.24-2.88 3.894a6.146 6.146 0 0 1-3.467.853ZM53.174 116.214a7.11 7.11 0 0 1-1.92-.48.685.685 0 0 1-.267-.907.61.61 0 0 1 .333-.33.608.608 0 0 1 .467.01c.054.053 1.92.96 4.374-.16 2.4-1.067 2.826-2.613 2.826-2.72a.599.599 0 0 1 .5-.493.608.608 0 0 1 .247.013.698.698 0 0 1 .427.853c0 .107-.587 2.24-3.574 3.627a6.576 6.576 0 0 1-3.413.587ZM49.12 104.214a4.268 4.268 0 0 1-2.4-.8.727.727 0 0 1-.107-.96.57.57 0 0 1 .686-.247.574.574 0 0 1 .22.14c.054 0 1.227.907 3.84.373 3.307-.693 4.214-1.973 4.267-2.026a.612.612 0 0 1 .418-.281.62.62 0 0 1 .49.121.724.724 0 0 1 .106.96c-.107.16-1.28 1.706-5.014 2.56a8.509 8.509 0 0 1-2.506.16Z"/><path fill="#1C3177" d="M57.014 95.307a17.886 17.886 0 0 1-7.734 1.6c-1.65.016-3.284-.311-4.8-.96a5.558 5.558 0 0 1-1.546-.96s.053-.96-.107-4.107c-.533-9.92 3.947-11.2 6.88-11.307a6.78 6.78 0 0 1 2.08.32 7.654 7.654 0 0 1 4.64 5.014c.907 3.253.587 10.4.587 10.4Z"/><path fill="#384D89" d="M50.453 85.707c-3.36 1.813-4.747.64-4.747.64s-.8 2.72-1.173 8.106c-.053.534-.053 1.067-.107 1.494a5.557 5.557 0 0 1-1.546-.96s.053-.96-.107-4.107c-.533-9.92 3.947-11.2 6.88-11.307a6.781 6.781 0 0 1 2.08.32c.853 1.44 1.813 4.16-1.28 5.814Z"/><path fill="#E1ECFF" d="M118.558 102.347c-.16.853-.32 1.653-.533 2.453-1.28 4.96-3.52 8.96-6.667 11.574-9.013 7.52-21.387 11.52-37.28 1.226-12.693-8.213-24.373-26.826-28.587-34.026a75.985 75.985 0 0 1-1.653-2.934s7.307-.373 18.827-5.653A109.369 109.369 0 0 0 78.93 65.6c10.4-7.253 16.427-14.026 19.894-19.306 4.106-6.187 4.693-10.24 4.693-10.24s1.013 1.866 2.773 5.973A239.762 239.762 0 0 1 115.251 68c3.894 13.44 4.96 25.334 3.307 34.347Z"/><path fill="#1C3177" d="M106.292 42.027a64.828 64.828 0 0 1-5.174 8.48 76.381 76.381 0 0 1-20.48 19.04 110.282 110.282 0 0 1-15.84 8.64c-9.493 4.213-16.053 5.173-19.36 5.333-1.066-1.813-1.653-2.933-1.653-2.933s7.307-.374 18.827-5.654a109.375 109.375 0 0 0 16.267-9.386c10.4-7.254 16.426-14.027 19.893-19.307 4.106-6.187 4.693-10.24 4.693-10.24a63.42 63.42 0 0 1 2.827 6.027Z"/><path fill="#C5DFFF" d="M118.025 104.8c-1.28 4.96-3.52 8.96-6.667 11.573-9.013 7.52-21.387 11.52-37.28 1.227-12.693-8.214-24.373-26.827-28.587-34.027a75.985 75.985 0 0 1-1.653-2.933s7.307-.374 18.827-5.654c4.533 7.04 14.56 21.6 24.426 30.187 11.467 10.027 24.534 4.107 30.934-.373Z"/><path fill="#142966" d="M64.799 78.24c-9.494 4.213-16.054 5.173-19.36 5.333-1.067-1.813-1.654-2.933-1.654-2.933s7.307-.374 18.827-5.654c.64.96 1.386 2.08 2.187 3.254Z"/><path fill="#F8FBFF" d="M117.066 97.173c-1.334-5.493-3.147-12.426-5.44-19.786-3.68-11.947-7.84-21.174-10.134-25.174 3.2-4.853 3.787-6.826 3.787-6.826s.8 1.493 2.187 4.693a189.139 189.139 0 0 1 6.986 20.32c3.094 10.453 3.947 19.733 2.614 26.773Z"/><path fill="#384D89" d="M106.292 42.027a64.93 64.93 0 0 1-5.173 8.48c-.854-1.654-1.6-3.094-2.294-4.267C102.932 40.053 103.52 36 103.52 36s1.066 1.973 2.773 6.027Z"/><path fill="#E1ECFF" d="M89.599 101.654s-4.8 3.626-14.56 7.68c-2.72 1.12-5.387 2.08-7.787 2.88l-.64-.64c-6.826-6.56-12.96-15.04-17.12-21.44-.267-.374-.48-.747-.693-1.067a107.48 107.48 0 0 0 16.267-5.813c9.013-4 11.306-5.814 11.306-5.814L89.6 101.654Z"/><path fill="#1C3177" d="M88.106 101.601s-4.32 3.467-13.493 7.093c-2.827 1.12-5.653 2.08-8.053 2.88-6.827-6.56-12.96-15.04-17.12-21.44l.853-.213a105.828 105.828 0 0 0 15.04-5.387c8.32-3.733 10.666-4.96 10.666-4.96l12.107 22.027Z"/><path fill="#FFCE94" d="M64.318 103.681a.75.75 0 0 1-.48-.16l-5.866-5.227-.374 1.12a.692.692 0 0 1-.906.427.694.694 0 0 1-.427-.907l.747-2.133a.848.848 0 0 1 .48-.48.847.847 0 0 1 .693.16l5.173 4.586-.266-2.08a.654.654 0 0 1 .426-.746l17.654-7.627a.723.723 0 0 1 .96.373.725.725 0 0 1-.374.96l-17.173 7.414.48 3.466a.719.719 0 0 1-.373.747 1.385 1.385 0 0 1-.374.107Z"/><path fill="#FEC272" d="M103.519 36.054s-.8 5.706-6.934 13.653c-3.52 4.587-8.853 9.92-16.853 15.36-13.12 8.96-23.467 12.747-29.654 14.4-2.056.588-4.163.98-6.293 1.173 0 0-13.386-22.826-11.2-43.52.587-5.386 2.24-9.866 4.747-13.546a26.859 26.859 0 0 1 6.613-6.827c7.413-5.333 17.387-7.2 27.093-6.027 17.707 2.187 32.481 25.334 32.481 25.334Z"/><path fill="#FCAD4F" d="M103.518 36.054s-.373 2.56-2.4 6.613a42.283 42.283 0 0 1-4.533 7.093c-3.52 4.587-8.853 9.92-16.853 15.36-14.133 9.6-25.067 13.28-30.987 14.72-1.63.41-3.287.695-4.96.854 0-.16.054-12.427 20-28 20.053-15.734 39.733-16.64 39.733-16.64Z"/><path fill="#F99D3A" d="M101.118 42.667a42.28 42.28 0 0 1-4.533 7.093c-3.52 4.587-8.853 9.92-16.853 15.36-14.134 9.6-25.067 13.28-30.987 14.72 2.24-5.12 7.147-12.693 18.187-21.333a80.787 80.787 0 0 1 34.186-15.84Z"/><path fill="#FFDBB3" d="M103.518 36.054s-.8 5.706-6.933 13.653a78.047 78.047 0 0 0-6.453-9.547s-7.84 7.094-14.24 2.027c-6.4-5.12-1.6-14.507-1.6-14.507a35.129 35.129 0 0 0-16.96-9.173 83.897 83.897 0 0 0-13.44-1.76c7.413-5.333 17.386-7.2 27.093-6.027 17.76 2.187 32.533 25.334 32.533 25.334ZM50.131 79.468c-2.056.587-4.163.98-6.293 1.173 0 0-13.387-22.827-11.2-43.52.587-5.387 2.24-9.867 4.747-13.547a92.53 92.53 0 0 0 3.84 35.627 106.266 106.266 0 0 0 8.906 20.267Z"/><path fill="#1C3177" d="M111.04 172.373c.007.339-.011.678-.054 1.014-.213 3.146-9.866 3.733-16.586 4.053-6.614.32-13.6-1.547-11.2-3.733l.106-.107c1.707-1.44 5.014-3.093 8.694-4.427a57.185 57.185 0 0 1 6.506-1.973c2.88-.693 8.747-2.08 10.667-.64.401.318.728.718.96 1.173.655 1.457.965 3.045.907 4.64Z"/><path fill="#384D89" d="M111.04 172.373c.007.339-.011.677-.054 1.013-.213 3.147-9.866 3.734-16.586 4.054-6.614.32-13.6-1.547-11.2-3.734 1.44.854 4.586 1.867 11.146 1.6 8.96-.373 14.4-1.866 16.694-2.933Z"/><path fill="#142966" d="M110.079 167.733a8.493 8.493 0 0 1-1.92 1.28c-2.56 1.28-10.347 2.667-15.094 1.867-2.08-.373-1.92-1.013-1.12-1.707a57.193 57.193 0 0 1 6.507-1.973c2.88-.693 8.747-2.08 10.667-.64.401.318.728.718.96 1.173Z"/><path fill="#E1ECFF" d="M98.078 142.133c2.133 13.653 9.92 24.107 9.92 24.107a8.59 8.59 0 0 1-2.24 2.026c-.717.45-1.487.808-2.293 1.067a11.183 11.183 0 0 1-4.16.32c-.9-.089-1.792-.25-2.667-.48 0 0-13.28-17.12-14.933-36.64-1.653-19.52 8.853-29.333 8.853-29.333a.942.942 0 0 0 .213-.16 10.96 10.96 0 0 1 11.414-.054c.388.207.762.439 1.12.694 4.32 2.826 4.96 5.706 4.96 5.706a27.401 27.401 0 0 0-5.12 6.4c-2.187 3.734-7.2 12.694-5.067 26.347Z"/><path fill="#C5DFFF" d="M98.078 142.133c2.134 13.653 9.92 24.107 9.92 24.107a8.59 8.59 0 0 1-2.24 2.026c-3.893-5.386-13.226-21.706-12.906-37.226.266-14.187 7.626-24.054 10.506-27.36 4.32 2.826 4.96 5.706 4.96 5.706a27.453 27.453 0 0 0-5.12 6.4c-2.24 3.734-7.253 12.694-5.12 26.347Z"/><path fill="#F8FBFF" d="M99.252 169.6c-.9-.09-1.792-.25-2.667-.48 0 0-13.28-17.12-14.933-36.64-1.653-19.52 8.853-29.334 8.853-29.334a.884.884 0 0 0 .214-.16c-2.027 4.16-6.56 14.934-6.134 27.094.534 15.626 7.307 27.68 12.054 35.36.906 1.546 1.813 2.933 2.613 4.16Z"/><path fill="#C5DFFF" d="M89.12 155.733a.577.577 0 0 1-.48-.213.746.746 0 0 1-.054-1.013 11.566 11.566 0 0 1 4.693-2.614c3.147-.96 6.614.107 6.774.16a.744.744 0 0 1 .48.907.744.744 0 0 1-.907.48c-.053 0-3.2-.96-5.92-.16-2.72.853-4.053 2.187-4.053 2.24a.616.616 0 0 1-.534.213ZM83.624 138.666a.69.69 0 0 1-.64-.373.716.716 0 0 1 .267-1.013 16.931 16.931 0 0 1 6.826-2.027 11.58 11.58 0 0 1 6.773 1.973.706.706 0 0 1 .287.758.702.702 0 0 1-.127.256.712.712 0 0 1-.471.3.701.701 0 0 1-.541-.14c-.054 0-2.72-1.867-5.868-1.707a14.95 14.95 0 0 0-6.186 1.867c-.053.106-.213.106-.32.106ZM98.24 124.585a.578.578 0 0 1-.48-.214c-.053-.053-4-3.626-7.947-4.106-3.84-.48-6.187 1.173-6.187 1.226a.745.745 0 0 1-1.013-.16.745.745 0 0 1 .16-1.013c.107-.107 2.827-2.08 7.254-1.493 4.373.586 8.533 4.32 8.746 4.48a.692.692 0 0 1 .053 1.013c-.165.144-.369.237-.586.267Z"/><path fill="#E1ECFF" d="M144.799 109.44a10.987 10.987 0 0 1-4.213 5.546c-3.2 2.08-5.014 2.294-5.014 2.294s-2.08-.32-2.08-1.654v-.16a5.74 5.74 0 0 1 1.12-2.719 19.877 19.877 0 0 0 4.214-1.227c1.493-.747 3.093-3.147 4.266-3.414a1.282 1.282 0 0 1 1.28.534c.197.234.342.506.427.8Z"/><path fill="#C5DFFF" d="M144.799 109.44a10.993 10.993 0 0 1-4.213 5.547c-3.2 2.08-5.014 2.293-5.014 2.293s-2.08-.32-2.08-1.653c1.44-.107 4.854-.533 7.254-2.453a12.572 12.572 0 0 0 3.626-4.587c.193.256.337.545.427.853Z"/><path fill="#E1ECFF" d="M142.826 109.173a11.65 11.65 0 0 1-5.92 4.267 6.079 6.079 0 0 1-3.04.373 2.634 2.634 0 0 1-.8-2.027c.053-.64.48-1.333 1.6-1.973 0 0 3.04-.373 4.96-4.107 1.92-3.733 1.12-4.106 1.6-4.853.32-.533 1.493-.48 2.293 0 .39.219.678.583.8 1.013.48 1.334.427 4.694-1.493 7.307Z"/><path fill="#C5DFFF" d="M142.826 109.173a11.648 11.648 0 0 1-5.92 4.266 6.08 6.08 0 0 1-3.04.374 2.635 2.635 0 0 1-.8-2.027c1.973-.107 6.027-.64 8-3.573a14.43 14.43 0 0 0 2.453-7.36c.39.218.678.583.8 1.013.48 1.333.427 4.693-1.493 7.307Z"/><path fill="#E1ECFF" d="M139.252 107.52a10.98 10.98 0 0 1-5.653 4.053 5.735 5.735 0 0 1-2.88.32 2.463 2.463 0 0 1-.747-1.92c.054-.587.48-1.28 1.547-1.867 0 0 2.88-.32 4.693-3.893 1.814-3.52 1.067-3.893 1.494-4.64.32-.48 1.386-.48 2.186 0 .374.213.658.554.8.96.427 1.333.374 4.533-1.44 6.987Z"/><path fill="#C5DFFF" d="M139.252 107.519a10.981 10.981 0 0 1-5.653 4.054 5.746 5.746 0 0 1-2.88.32 2.463 2.463 0 0 1-.747-1.92c1.867-.107 5.707-.587 7.627-3.36a14.311 14.311 0 0 0 2.347-6.987c.373.213.657.554.8.96a8.989 8.989 0 0 1-1.494 6.933Z"/><path fill="#E1ECFF" d="M137.814 112.266a8.54 8.54 0 0 1-.747 3.787 7.24 7.24 0 0 1-1.227 1.866s-13.493 4.747-27.68-7.093c-7.306-6.08-13.173-14.026-17.12-20.266a106.594 106.594 0 0 1-5.813-10.347s-1.12-3.467.96-6.453a7.726 7.726 0 0 1 3.093-2.614c2.507-1.28 4.587-1.386 6.24-.96a8.332 8.332 0 0 1 4.32 2.773s2.08 4.587 5.174 10.24c3.626 6.56 8.64 14.56 13.44 18.294 8.906 6.933 16.32 4.266 16.32 4.266a13.902 13.902 0 0 1 1.6 2.027c.586 1.12 1.386 2.72 1.44 4.48Z"/><path fill="#C5DFFF" d="M104.853 83.093a14.484 14.484 0 0 1-7.36 5.867 24.537 24.537 0 0 1-6.56 1.546 106.528 106.528 0 0 1-5.814-10.346s-1.92-6.027 4-9.12c6.667-3.467 10.56 1.813 10.56 1.813s2.08 4.64 5.174 10.24Z"/><path fill="#C5DFFF" d="M137.013 115.999a7.267 7.267 0 0 1-1.226 1.867s-13.494 4.747-27.68-7.093c-7.307-6.08-13.174-14.027-17.12-20.267a106.573 106.573 0 0 1-5.814-10.347s-1.12-3.466.96-6.453c1.76 4 9.28 20.32 18.827 29.707 10.933 10.72 16.853 12.053 27.36 12.48 1.707.053 3.307.106 4.693.106Z"/><path fill="#F8FBFF" d="M136.213 107.733c-2.72.8-6.507 1.386-10.453.16-7.36-2.294-13.387-6.934-19.307-15.84-4.853-7.36-9.547-18.24-11.04-21.92a8.333 8.333 0 0 1 4.32 2.773s2.08 4.587 5.173 10.24c3.627 6.56 8.64 14.56 13.44 18.293 8.907 6.934 16.32 4.267 16.32 4.267.584.621 1.102 1.3 1.547 2.027Z"/><path fill="#C5DFFF" d="M99.252 99.36a7.813 7.813 0 0 1-2.24-.32.742.742 0 0 1 .533-1.387c.107.053 2.613.907 5.973-.907a8.872 8.872 0 0 0 4.16-5.173.716.716 0 0 1 .576-.542.713.713 0 0 1 .811.862 10.082 10.082 0 0 1-4.907 6.133 9.857 9.857 0 0 1-4.906 1.334ZM109.44 111.306a.746.746 0 1 1 0-1.493c.053 0 3.36-.053 5.227-2.347 1.92-2.346 1.546-5.653 1.546-5.706a.746.746 0 0 1 .024-.282.732.732 0 0 1 .616-.518.754.754 0 0 1 .8.64c0 .16.427 3.946-1.866 6.773-2.294 2.933-6.187 2.933-6.347 2.933ZM121.171 117.546a.733.733 0 0 1-.693-.48.745.745 0 0 1 .427-.96 6.816 6.816 0 0 0 3.84-4.48c.8-3.307-.32-5.227-.374-5.28a.759.759 0 0 1 .214-1.013.757.757 0 0 1 1.013.213c.053.107 1.547 2.507.533 6.4a8.334 8.334 0 0 1-4.746 5.493c-.054.107-.107.107-.214.107Z"/><path fill="#1C3177" d="M105.279 76.693a9.016 9.016 0 0 1-.48 1.6c-.747 1.813-2.507 4.8-6.507 7.413-6.186 4-11.68 2.294-11.68 2.294a27.364 27.364 0 0 1-4.746-12.32c-.48-4.107 2.24-7.307 5.76-8.854 2.613-1.12 5.653-1.333 8.106-.266 5.814 2.613 9.547 10.133 9.547 10.133Z"/><path fill="#384D89" d="M105.281 76.693a9.016 9.016 0 0 1-.48 1.6c0-.053-.053-.053-.053-.107-4.96-6.56-8.854-7.893-8.854-7.893s-1.44 3.413-6.186 1.44c-3.307-1.333-2.72-3.68-2.027-4.907 2.613-1.12 5.653-1.333 8.107-.266 5.76 2.613 9.493 10.133 9.493 10.133Z"/><path fill="#1C3177" d="M40.48 48.48a1.92 1.92 0 0 0-2.187 1.44 83.014 83.014 0 0 0-1.547 8.16 69.86 69.86 0 0 0-.427 5.387 1.894 1.894 0 0 0 1.547 1.92 1.85 1.85 0 0 0 2.133-1.654c.163-2.365.484-4.717.96-7.04.534-2.72.907-4.64 1.174-5.92a2.064 2.064 0 0 0-1.654-2.293Z"/><path fill="#1C3177" d="M31.253 54.187a1.708 1.708 0 0 1 2.4-1.174c1.6.694 3.947 1.707 6.187 2.507 2.293.8 4.426 1.6 5.76 2.133a1.895 1.895 0 0 1 1.173 2.24 1.875 1.875 0 0 1-2.347 1.334 64.757 64.757 0 0 1-7.466-2.614 41.434 41.434 0 0 1-5.014-2.506 1.866 1.866 0 0 1-.693-1.92ZM63.411 35.466a2.526 2.526 0 0 0-2.827 1.92c-.586 2.667-1.44 7.147-1.813 10.667-.267 2.933-.427 5.333-.427 6.987a2.329 2.329 0 0 0 2.027 2.4 2.367 2.367 0 0 0 2.72-2.187c.107-2.133.427-5.387 1.014-9.12.586-3.573 1.066-6.08 1.333-7.733a2.432 2.432 0 0 0-2.027-2.934Z"/><path fill="#1C3177" d="M51.572 43.147a2.286 2.286 0 0 1 3.093-1.6c2.08.853 5.12 2.08 8.053 3.093a416.84 416.84 0 0 1 7.52 2.613 2.42 2.42 0 0 1 1.547 2.88 2.475 2.475 0 0 1-3.04 1.813 80.154 80.154 0 0 1-9.707-3.2 43.79 43.79 0 0 1-6.506-3.146 2.478 2.478 0 0 1-.96-2.453Z"/><path fill="#FEC272" d="M243.946 137.387a11.006 11.006 0 0 1 4.694 3.093c1.973 2.347 2.24 6.134 2.24 6.134l10.773-5.014s-5.44 2.08-7.253-1.546c-1.814-3.627 4.213-9.387 4.213-9.387s-6.667 5.44-9.28 4.64c-2.613-.8-3.04-4.053-3.04-4.053l-2.347 6.133Z"/><path fill="#D2E9FF" d="m233.759 136.16 1.92.053 2.987-21.867-6.773-1.28 1.866 23.094ZM238.452 136.266l4.48-20.48 6.453 3.147-9.76 17.866-1.173-.533Z"/><path fill="#FEC272" d="m25.014 32.907-1.12 2.453L.48 28.16l3.147-9.226 21.387 13.973ZM28.533 24.8l-2.08 2.987L0 7.627 7.307 0l21.226 24.8Z"/></g><defs><clipPath id="clip0_667_1970"><path fill="#fff" d="M0 0h261.653v180H0z"/></clipPath></defs></svg>